<?xml version="1.0" encoding="utf-8"?>
<!-- Generator: Adobe Illustrator 22.1.0, SVG Export Plug-In . SVG Version: 6.00 Build 0)  -->
<svg version="1.1" id="图层_1" xmlns="http://www.w3.org/2000/svg" xmlns:xlink="http://www.w3.org/1999/xlink" x="0px" y="0px"
	 viewBox="0 0 128 128" style="enable-background:new 0 0 128 128;" xml:space="preserve">
<style type="text/css">
	.st0{fill:#DDDDDD;}
</style>
<g>
	<path class="st0" d="M112.1,52.2c0-0.9-0.4-1.9-1.1-2.6C110.9,49.5,92,31,92,31c-1.6-1.6-4.1-1.6-5.6,0c-1.6,1.6-1.6,4.1,0,5.6
		l12,11.7l-77.4,0c-2.3,0-4.1,2-4.1,4s1.8,4,4.1,4h87c1.7,0,2.8-1.2,2.8-1.2C111.6,54.3,112.1,53.2,112.1,52.2z"/>
	<path class="st0" d="M15.9,75.8c0,0.9,0.4,1.9,1.1,2.6C17.1,78.5,36,97,36,97c1.6,1.6,4.1,1.6,5.6,0c1.6-1.6,1.6-4.1,0-5.6
		l-12-11.7H107c2.3,0,4.1-2,4.1-4s-1.8-4-4.1-4H20c-1.7,0-2.8,1.2-2.8,1.2C16.4,73.7,15.9,74.8,15.9,75.8z"/>
</g>
</svg>
