<?xml version="1.0" encoding="utf-8"?>
<!-- Generator: Adobe Illustrator 22.1.0, SVG Export Plug-In . SVG Version: 6.00 Build 0)  -->
<svg version="1.1" id="Layer_1" xmlns="http://www.w3.org/2000/svg" xmlns:xlink="http://www.w3.org/1999/xlink" x="0px" y="0px"
	 viewBox="0 0 95.1 95.1" style="enable-background:new 0 0 95.1 95.1;" xml:space="preserve">
<style type="text/css">
	.st0{fill:#FFFFFF;}
</style>
<path class="st0" d="M81.4,2.3l-33.9,34L13.6,2.4c-3.1-3.1-8.2-3.1-11.3,0s-3.1,8.2,0,11.3l33.9,33.9L2.3,81.5
	c-3.1,3.1-3.1,8.2,0,11.3s8.2,3.1,11.3,0l33.9-33.9l33.9,33.9c3.1,3.1,8.2,3.1,11.3,0c3.1-3.1,3.1-8.2,0-11.3L58.8,47.6l33.9-33.9
	c3.1-3.1,3.1-8.2,0-11.3C89.6-0.8,84.6-0.8,81.4,2.3z"/>
</svg>
