<?xml version="1.0" encoding="utf-8"?>
<!-- Generator: Adobe Illustrator 22.1.0, SVG Export Plug-In . SVG Version: 6.00 Build 0)  -->
<svg version="1.1" id="图层_1" xmlns="http://www.w3.org/2000/svg" xmlns:xlink="http://www.w3.org/1999/xlink" x="0px" y="0px"
	 viewBox="0 0 160 198" style="enable-background:new 0 0 160 198;" xml:space="preserve">
<style type="text/css">
	.st0{fill:#DDDDDD;}
</style>
<path class="st0" d="M56.2,95.4c4.4,0,7.9-3.6,7.9-7.9c0-4.4-3.6-7.9-7.9-7.9s-7.9,3.6-7.9,7.9C48.3,91.8,51.8,95.4,56.2,95.4z
	 M103.8,95.4c4.4,0,7.9-3.6,7.9-7.9c0-4.4-3.6-7.9-7.9-7.9s-7.9,3.6-7.9,7.9C95.9,91.8,99.4,95.4,103.8,95.4z M58.2,121.5
	c5.5-4.4,12.7-7,21.8-7s16.2,2.6,21.8,7c3.4,2.7,5.4,5.4,6.4,7.4c0.8,1.5,0.1,3.5-1.4,4.3s-3.5,0.1-4.3-1.4c-0.1-0.2-0.4-0.8-1-1.5
	c-0.9-1.3-2.2-2.5-3.7-3.8c-4.4-3.6-10.3-5.7-17.9-5.7s-13.5,2.1-17.9,5.7c-1.5,1.2-2.7,2.5-3.7,3.8c-0.5,0.7-0.9,1.2-1,1.5
	c-0.8,1.5-2.6,2.2-4.3,1.4c-1.5-0.8-2.2-2.6-1.4-4.3C52.8,126.8,54.9,124.1,58.2,121.5z"/>
<path class="st0" d="M80,157c-33.1,0-60-26.9-60-60s26.9-60,60-60s60,26.9,60,60S113,157,80,157z M80,43.1
	c-29.7,0-53.9,24.2-53.9,53.9s24.2,53.9,53.9,53.9s53.9-24.2,53.9-53.9S109.6,43.1,80,43.1z"/>
</svg>
